<?xml version="1.0" encoding="utf-8"?>
<!-- Generator: Adobe Illustrator 18.1.0, SVG Export Plug-In . SVG Version: 6.00 Build 0)  -->
<svg version="1.1" xmlns="http://www.w3.org/2000/svg" xmlns:xlink="http://www.w3.org/1999/xlink" x="0px" y="0px"
	 viewBox="0 0 50 50" enable-background="new 0 0 50 50" xml:space="preserve">
<g id="Original">
</g>
<g id="Dark_gray" display="none">
	<circle display="inline" fill="#FFFFFF" cx="25" cy="24" r="30.1"/>
	<g transform="translate(0 0)" display="inline">
		<g id="icon-home_1_">
			<path fill="#999999" d="M46.5,27.4l-8.1-8.1V7.2h-5.4v6.7L25,5.9L3.5,27.4v1.3h5.4v13.4h13.4v-8.1h5.4v8.1h13.4V28.7h5.4V27.4z"
				/>
		</g>
	</g>
</g>
<g id="Light_gray" display="none">
	<circle display="inline" fill="#FFFFFF" cx="25" cy="24" r="30.1"/>
	<g transform="translate(0 0)" display="inline">
		<g id="icon-home_6_">
			<path fill="#999999" d="M46.5,27.4l-8.1-8.1V7.2h-5.4v6.7L25,5.9L3.5,27.4v1.3h5.4v13.4h13.4v-8.1h5.4v8.1h13.4V28.7h5.4V27.4z"
				/>
		</g>
	</g>
</g>
<g id="DataSF_blue" display="none">
	<circle display="inline" fill="#FFFFFF" cx="25" cy="24" r="30.1"/>
	<g transform="translate(0 0)" display="inline">
		<g id="icon-home_10_">
			<path fill="#999999" d="M46.5,27.4l-8.1-8.1V7.2h-5.4v6.7L25,5.9L3.5,27.4v1.3h5.4v13.4h13.4v-8.1h5.4v8.1h13.4V28.7h5.4V27.4z"
				/>
		</g>
	</g>
</g>
<g id="Tint_1" display="none">
	<circle display="inline" fill="#FFFFFF" cx="25" cy="24" r="30.1"/>
	<g transform="translate(0 0)" display="inline">
		<g id="icon-home_14_">
			<path fill="#999999" d="M46.5,27.4l-8.1-8.1V7.2h-5.4v6.7L25,5.9L3.5,27.4v1.3h5.4v13.4h13.4v-8.1h5.4v8.1h13.4V28.7h5.4V27.4z"
				/>
		</g>
	</g>
</g>
<g id="Tint_2" display="none">
	<circle display="inline" fill="#FFFFFF" cx="25" cy="24" r="30.1"/>
	<g transform="translate(0 0)" display="inline">
		<g id="icon-home_22_">
			<path fill="#999999" d="M46.5,27.4l-8.1-8.1V7.2h-5.4v6.7L25,5.9L3.5,27.4v1.3h5.4v13.4h13.4v-8.1h5.4v8.1h13.4V28.7h5.4V27.4z"
				/>
		</g>
	</g>
</g>
<g id="Tint_4" display="none">
	<circle display="inline" fill="#FFFFFF" cx="25" cy="24" r="30.1"/>
	<g transform="translate(0 0)" display="inline">
		<g id="icon-home_26_">
			<path fill="#999999" d="M46.5,27.4l-8.1-8.1V7.2h-5.4v6.7L25,5.9L3.5,27.4v1.3h5.4v13.4h13.4v-8.1h5.4v8.1h13.4V28.7h5.4V27.4z"
				/>
		</g>
	</g>
</g>
<g id="Tint_3">
	<g transform="translate(0 0)">
		<g id="icon-home_18_">
			<path fill="#CDD4DC" d="M46.5,27.4l-8.1-8.1V7.2h-5.4v6.7L25,5.9L3.5,27.4v1.3h5.4v13.4h13.4v-8.1h5.4v8.1h13.4V28.7h5.4V27.4z"
				/>
		</g>
	</g>
</g>
</svg>
